name C:\Users\u0101727\Documents\MyRepositories\upper-imu-dc\Results\main_tracking\Case_55\kinematics.mot
datacolumns 10
datarows 47
range 1.37000000 1.83000000
endheader 
time	clav_prot	clav_elev	scapula_abduction	scapula_elevation	scapula_upward_rot	scapula_winging	plane_elv	shoulder_elv	axial_rot	
          1.37000000	        -20.05852337	         13.44004191	         -4.75954225	          5.71612317	         28.04435286	         -0.66796476	          7.91102364	          5.94914726	         25.43523277	
          1.38000000	        -20.08876860	         13.67807101	         -4.69511497	          5.81940110	         28.36045948	         -0.73684026	          8.78125951	          5.72425392	         24.89037431	
          1.39000000	        -20.11857702	         13.90258313	         -4.63265432	          5.91598036	         28.66330586	         -0.80232788	          9.64761834	          5.50872949	         24.33901064	
          1.40000000	        -20.14813762	         14.11349526	         -4.57272561	          6.00582696	         28.95258168	         -0.86450525	         10.50729625	          5.30289070	         23.78320981	
          1.41000000	        -20.17762074	         14.31077325	         -4.51584062	          6.08892842	         29.22804309	         -0.92345792	         11.35745830	          5.10699107	         23.22513347	
          1.42000000	        -20.20717585	         14.49443389	         -4.46245559	          6.16529653	         29.48950999	         -0.97927662	         12.19527763	          4.92122205	         22.66698877	
          1.43000000	        -20.23692959	         14.66455062	         -4.41297071	          6.23497257	         29.73686456	         -1.03205448	         13.01797609	          4.74571661	         22.11097721	
          1.44000000	        -20.26698535	         14.82125080	         -4.36772474	          6.29802525	         29.97005333	         -1.08188689	         13.82287085	          4.58055265	         21.55924061	
          1.45000000	        -20.29742422	         14.96471828	         -4.32699741	          6.35455309	         30.18908693	         -1.12886999	         14.60741666	          4.42575676	         21.01381497	
          1.46000000	        -20.32830644	         15.09520206	         -4.29102081	          6.40469230	         30.39403450	         -1.17309644	         15.36923761	          4.28130804	         20.47659937	
          1.47000000	        -20.35967627	         15.21300171	         -4.25997915	          6.44860602	         30.58502372	         -1.21465738	         16.10615874	          4.14713856	         19.94933544	
          1.48000000	        -20.39156865	         15.31847074	         -4.23402896	          6.48648840	         30.76223318	         -1.25363902	         16.81622152	          4.02313804	         19.43360233	
          1.49000000	        -20.42401435	         15.41202601	         -4.21332517	          6.51857430	         30.92587889	         -1.29011650	         17.49768947	          3.90915816	         18.93081936	
          1.50000000	        -20.45706985	         15.49410286	         -4.19806108	          6.54510714	         31.07620228	         -1.32415814	         18.14906196	          3.80501085	         18.44224999	
          1.51000000	        -20.49080223	         15.56517958	         -4.18846885	          6.56636171	         31.21345221	         -1.35581611	         18.76905435	          3.71046354	         17.96901181	
          1.52000000	        -20.52550225	         15.62565122	         -4.18523366	          6.58255988	         31.33778707	         -1.38511664	         19.35663760	          3.62524145	         17.51208704	
          1.53000000	        -21.84362114	         15.77926552	         -6.69036680	          6.59447961	         31.44897296	         -1.41271437	         19.91139449	          3.54888448	         17.07183948	
          1.54000000	        -22.09379598	         15.84165060	         -7.11968393	          6.60425644	         31.54601862	         -1.44411840	         20.43178984	          3.48043071	         16.64987359	
          1.55000000	        -22.30157171	         15.89143035	         -7.47022881	          6.60962756	         31.63166152	         -1.47398266	         20.91795070	          3.42028195	         16.24639444	
          1.56000000	        -22.48156281	         15.92987575	         -7.76997293	          6.61055001	         31.70659678	         -1.50222124	         21.36943315	          3.36820311	         15.86201279	
          1.57000000	        -22.64048659	         15.95775574	         -8.03165893	          6.60708809	         31.77141786	         -1.52878130	         21.78618322	          3.32381974	         15.49716187	
          1.58000000	        -22.78229401	         15.97567656	         -8.26266432	          6.59934113	         31.82672874	         -1.55365891	         22.16827387	          3.28676136	         15.15218742	
          1.59000000	        -22.90964878	         15.98418480	         -8.46789030	          6.58743770	         31.87312758	         -1.57687859	         22.51589643	          3.25664857	         14.82739642	
          1.60000000	        -23.02449193	         15.98377129	         -8.65085147	          6.57151004	         31.91118992	         -1.59848339	         22.82933475	          3.23310293	         14.52306170	
          1.61000000	        -23.12832814	         15.97490748	         -8.81425963	          6.55170881	         31.94144878	         -1.61851958	         23.10893441	          3.21575818	         14.23943813	
          1.62000000	        -23.22234256	         15.95801943	         -8.96023874	          6.52818002	         31.96438402	         -1.63703249	         23.35507415	          3.20426571	         13.97677460	
          1.63000000	        -23.30747029	         15.93347893	         -9.09046102	          6.50105727	         31.98041148	         -1.65406017	         23.56813542	          3.19830082	         13.73532537	
          1.64000000	        -23.38444528	         15.90161104	         -9.20625512	          6.47046723	         31.98987099	         -1.66962537	         23.74847076	          3.19756812	         13.51535981	
          1.65000000	        -23.45381543	         15.86267606	         -9.30862958	          6.43651728	         31.99301989	         -1.68373257	         23.89637904	          3.20180319	         13.31716950	
          1.66000000	        -23.51596106	         15.81686989	         -9.39831300	          6.39929604	         31.99002790	         -1.69636386	         24.01208595	          3.21077532	         13.14107181	
          1.67000000	        -23.57110929	         15.76432639	         -9.47578492	          6.35887475	         31.98097536	         -1.70747620	         24.09573218	          3.22428938	         12.98741001	
          1.68000000	        -23.61933958	         15.70511248	         -9.54128304	          6.31530333	         31.96585431	         -1.71700078	         24.14737085	          3.24218658	         12.85654944	
          1.69000000	        -23.66059214	         15.63923041	         -9.59481973	          6.26861125	         31.94457012	         -1.72484221	         24.16697159	          3.26434497	         12.74887068	
          1.70000000	        -23.69467473	         15.56662075	         -9.63619490	          6.21880875	         31.91694466	         -1.73087861	         24.15443068	          3.29067921	         12.66476147	
          1.71000000	        -23.72126655	         15.48716536	         -9.66500272	          6.16588802	         31.88271986	         -1.73496203	         24.10958508	          3.32114121	         12.60460758	
          1.72000000	        -23.73992200	         15.40069136	         -9.68063865	          6.10982500	         31.84156165	         -1.73691942	         24.03222878	          3.35572115	         12.56878320	
          1.73000000	        -23.75007145	         15.30697483	         -9.68230144	          6.05058146	         31.79306279	         -1.73655356	         23.92213152	          3.39444936	         12.55764209	
          1.74000000	        -23.75101755	         15.20574390	         -9.66898755	          5.98810711	         31.73674424	         -1.73364384	         23.77905841	          3.43739829	         12.57150791	
          1.75000000	        -23.74192895	         15.09668079	         -9.63947972	          5.92234088	         31.67205714	         -1.72794788	         23.60279063	          3.48468248	         12.61066358	
          1.76000000	        -23.72183176	         14.97942616	         -9.59233395	          5.85321453	         31.59838296	         -1.71920288	         23.39314805	          3.53645877	         12.67534031	
          1.77000000	        -23.68959458	         14.85358151	         -9.52585199	          5.78065464	         31.51503522	         -1.70712836	         23.15001591	          3.59292442	         12.76570274	
          1.78000000	        -23.64390723	         14.71871121	         -9.43803852	          5.70458402	         31.42126511	         -1.69143106	         22.87337719	          3.65431255	         12.88182790	
          1.79000000	        -23.58325509	         14.57435416	         -9.32655606	          5.62493024	         31.31626662	         -1.67180990	         22.56334910	          3.72089006	         13.02368082	
          1.80000000	        -23.50586911	         14.42002432	         -9.18862250	          5.54162621	         31.19918797	         -1.64796515	         22.22022329	          3.79295492	         13.19108737	
          1.81000000	        -23.40964665	         14.25521661	         -9.02085502	          5.45461556	         31.06914625	         -1.61960937	         21.84450208	          3.87083015	         13.38370636	
          1.82000000	        -23.29201695	         14.07942183	         -8.81901815	          5.36386812	         30.92523959	         -1.58647835	         21.43692604	          3.95486055	         13.60100524	
          1.83000000	        -23.14965736	         13.89210669	         -8.57746296	          5.26937589	         30.76657266	         -1.54835049	         20.99849978	          4.04540220	         13.84224147	
